<svg width="22" height="22" viewBox="0 0 22 22" fill="none" xmlns="http://www.w3.org/2000/svg">
<path fill-rule="evenodd" clip-rule="evenodd" d="M0.25 11C0.25 5.06279 5.06279 0.25 11 0.25C16.9372 0.25 21.75 5.06279 21.75 11C21.75 16.9372 16.9372 21.75 11 21.75C5.06279 21.75 0.25 16.9372 0.25 11ZM11 1.75C5.89121 1.75 1.75 5.89121 1.75 11C1.75 16.1088 5.89121 20.25 11 20.25C16.1088 20.25 20.25 16.1088 20.25 11C20.25 5.89121 16.1088 1.75 11 1.75ZM11 6.25C11.4142 6.25 11.75 6.58579 11.75 7V10.25H15C15.4142 10.25 15.75 10.5858 15.75 11C15.75 11.4142 15.4142 11.75 15 11.75H11.75V15C11.75 15.4142 11.4142 15.75 11 15.75C10.5858 15.75 10.25 15.4142 10.25 15V11.75H7C6.58579 11.75 6.25 11.4142 6.25 11C6.25 10.5858 6.58579 10.25 7 10.25H10.25V7C10.25 6.58579 10.5858 6.25 11 6.25Z" fill="#000"/>
</svg>
