<svg width="20" height="22" viewBox="0 0 20 22" fill="none" xmlns="http://www.w3.org/2000/svg">
<path fill-rule="evenodd" clip-rule="evenodd" d="M5.85 0.550044C6.09853 0.881415 6.03137 1.35152 5.7 1.60004L3.7 3.10004C3.36863 3.34857 2.89853 3.28141 2.65 2.95004C2.40147 2.61867 2.46863 2.14857 2.8 1.90004L4.8 0.400044C5.13137 0.151516 5.60147 0.218673 5.85 0.550044ZM14.65 0.550044C14.8985 0.218673 15.3686 0.151516 15.7 0.400044L17.7 1.90004C18.0314 2.14857 18.0985 2.61867 17.85 2.95004C17.6015 3.28141 17.1314 3.34857 16.8 3.10004L14.8 1.60004C14.4686 1.35152 14.4015 0.881415 14.65 0.550044ZM3.35571 5.10575C5.18419 3.27727 7.66414 2.25004 10.25 2.25004C11.5304 2.25004 12.7982 2.50224 13.9812 2.99222C15.1641 3.4822 16.2389 4.20038 17.1443 5.10575C18.0497 6.01112 18.7678 7.08596 19.2578 8.26888C19.7478 9.45181 20 10.7197 20 12C20 13.2804 19.7478 14.5483 19.2578 15.7312C18.7678 16.9141 18.0497 17.989 17.1443 18.8943C16.2389 19.7997 15.1641 20.5179 13.9812 21.0079C12.7982 21.4979 11.5304 21.75 10.25 21.75C7.66414 21.75 5.18419 20.7228 3.35571 18.8943C1.52723 17.0659 0.5 14.5859 0.5 12C0.5 9.41418 1.52723 6.93423 3.35571 5.10575ZM10.25 3.75004C8.06196 3.75004 5.96354 4.61924 4.41637 6.16641C2.86919 7.71359 2 9.81201 2 12C2 14.1881 2.86919 16.2865 4.41637 17.8337C5.96354 19.3808 8.06196 20.25 10.25 20.25C11.3334 20.25 12.4062 20.0367 13.4071 19.6221C14.4081 19.2074 15.3175 18.5998 16.0836 17.8337C16.8497 17.0676 17.4574 16.1581 17.872 15.1572C18.2866 14.1562 18.5 13.0834 18.5 12C18.5 10.9166 18.2866 9.84384 17.872 8.84291C17.4574 7.84197 16.8497 6.9325 16.0836 6.16641C15.3175 5.40033 14.4081 4.79264 13.4071 4.37804C12.4062 3.96344 11.3334 3.75004 10.25 3.75004ZM10.25 6.25004C10.6642 6.25004 11 6.58583 11 7.00004V11.25H15.25C15.6642 11.25 16 11.5858 16 12C16 12.4143 15.6642 12.75 15.25 12.75H10.25C9.83579 12.75 9.5 12.4143 9.5 12V7.00004C9.5 6.58583 9.83579 6.25004 10.25 6.25004Z" fill="#000"/>
</svg>
