<svg width="24" height="24" viewBox="0 0 24 24" fill="none" xmlns="http://www.w3.org/2000/svg">
<path fill-rule="evenodd" clip-rule="evenodd" d="M7.20985 3.36203C8.47219 2.01561 10.1939 1.25 12 1.25C13.8053 1.25 15.5278 2.01675 16.7899 3.3618L16.7901 3.36204C18.05 4.7059 18.75 6.5192 18.75 8.4C18.75 12.0307 19.4786 14.3111 20.1677 15.6587C20.513 16.3339 20.8517 16.7814 21.092 17.052C21.2123 17.1875 21.3085 17.2792 21.3693 17.3332C21.3997 17.3602 21.4213 17.3778 21.4327 17.3868L21.4414 17.3936C21.7025 17.5837 21.8129 17.9199 21.7145 18.2281C21.6152 18.539 21.3263 18.75 21 18.75H2.99999C2.67366 18.75 2.38477 18.539 2.28552 18.2281C2.18712 17.9199 2.29751 17.5837 2.5586 17.3936L2.56733 17.3868C2.57867 17.3778 2.60025 17.3602 2.63066 17.3332C2.69145 17.2792 2.78766 17.1875 2.908 17.052C3.1483 16.7814 3.48695 16.3339 3.83224 15.6587C4.52136 14.3111 5.24999 12.0307 5.24999 8.4C5.24999 6.5192 5.94998 4.7059 7.20984 3.36204L7.20985 3.36203ZM4.63891 17.25H19.3611C19.1889 16.9905 19.0099 16.6891 18.8322 16.3416C18.0214 14.7559 17.25 12.2363 17.25 8.4C17.25 6.88691 16.6861 5.44432 15.6961 4.3882C14.7062 3.33325 13.3747 2.75 12 2.75C10.6241 2.75 9.29379 3.33239 8.30413 4.38797C7.31399 5.44412 6.74999 6.8868 6.74999 8.4C6.74999 12.2363 5.97863 14.7559 5.16775 16.3416C4.99004 16.6891 4.81106 16.9905 4.63891 17.25ZM9.89422 20.3509C10.2527 20.1434 10.7115 20.2658 10.9191 20.6242C11.0288 20.8138 11.1864 20.9711 11.3761 21.0805C11.5659 21.1899 11.781 21.2474 12 21.2474C12.219 21.2474 12.4341 21.1899 12.6239 21.0805C12.8136 20.9711 12.9712 20.8138 13.0809 20.6242C13.2884 20.2658 13.7473 20.1434 14.1058 20.3509C14.4642 20.5585 14.5866 21.0173 14.3791 21.3758C14.1376 21.7929 13.7906 22.1392 13.3731 22.38C12.9555 22.6207 12.482 22.7474 12 22.7474C11.518 22.7474 11.0445 22.6207 10.6269 22.38C10.2093 22.1392 9.86241 21.7929 9.62092 21.3758C9.41339 21.0173 9.53575 20.5585 9.89422 20.3509Z" fill="#000"/>
</svg>
