<svg width="24" height="25" viewBox="0 0 24 25" fill="#000" xmlns="http://www.w3.org/2000/svg">
<g id="Outline/Organization/bookmark-empty">
<path id="Vector (Stroke)" fill-rule="evenodd" clip-rule="evenodd" d="M5.05546 3.55546C5.57118 3.03973 6.27065 2.75 7 2.75H17C17.7293 2.75 18.4288 3.03973 18.9445 3.55546C19.4603 4.07118 19.75 4.77065 19.75 5.5V21.5C19.75 21.7744 19.6002 22.0268 19.3594 22.1583C19.1186 22.2898 18.8252 22.2792 18.5944 22.1309L12.6764 18.3259C12.4747 18.1961 12.2398 18.127 12 18.127C11.7602 18.127 11.5254 18.196 11.3238 18.3258L5.40561 22.1309C5.17483 22.2792 4.88145 22.2898 4.64063 22.1583C4.39981 22.0268 4.25 21.7744 4.25 21.5V5.5C4.25 4.77065 4.53973 4.07118 5.05546 3.55546Z" fill="transparent" stroke="#000" strokeWidth="1.5"/>
</g>
</svg>
