<svg width="17" height="20" viewBox="0 0 17 20" fill="none" xmlns="http://www.w3.org/2000/svg">
<path fill-rule="evenodd" clip-rule="evenodd" d="M3.5 1.75C3.16848 1.75 2.85054 1.8817 2.61612 2.11612C2.3817 2.35054 2.25 2.66848 2.25 3V17.6261L7.01225 14.5642C7.45596 14.2788 7.97241 14.127 8.5 14.127C9.02759 14.127 9.54404 14.2788 9.98775 14.5642L14.75 17.6261V3C14.75 2.66848 14.6183 2.35054 14.3839 2.11612C14.1495 1.8817 13.8315 1.75 13.5 1.75H3.5ZM1.55546 1.05546C2.07118 0.539731 2.77065 0.25 3.5 0.25H13.5C14.2293 0.25 14.9288 0.539731 15.4445 1.05546C15.9603 1.57118 16.25 2.27065 16.25 3V19C16.25 19.2744 16.1002 19.5268 15.8594 19.6583C15.6186 19.7898 15.3252 19.7792 15.0944 19.6309L9.17639 15.8259L9.17625 15.8258C8.97456 15.696 8.73981 15.627 8.5 15.627C8.26019 15.627 8.02544 15.696 7.82375 15.8258L7.82361 15.8259L1.90561 19.6309C1.67483 19.7792 1.38145 19.7898 1.14063 19.6583C0.899814 19.5268 0.75 19.2744 0.75 19V3C0.75 2.27065 1.03973 1.57118 1.55546 1.05546Z" fill="red" stroke="#000" strokeWidth="1"/>
</svg>
