<svg width="8" height="8" viewBox="0 0 8 8" fill="none" xmlns="http://www.w3.org/2000/svg">
<path fill-rule="evenodd" clip-rule="evenodd" d="M0.15179 0.151296C0.347071 -0.0439478 0.663654 -0.0439176 0.858897 0.151363L4.00004 3.29311L7.14246 0.151296C7.33774 -0.0439478 7.65432 -0.0439176 7.84957 0.151363C8.04481 0.346644 8.04478 0.663226 7.8495 0.85847L4.70745 3.99992L7.84953 7.142C8.04479 7.33726 8.04479 7.65384 7.84953 7.8491C7.65427 8.04436 7.33769 8.04436 7.14242 7.8491L4.00064 4.70732L0.858864 7.8491C0.663601 8.04436 0.347019 8.04436 0.151757 7.8491C-0.0435055 7.65384 -0.0435055 7.33726 0.151757 7.142L3.29324 4.00052L0.151723 0.858402C-0.0435206 0.663122 -0.0434903 0.346539 0.15179 0.151296Z" fill="#000"/>
</svg>
