<svg width="20" height="20" viewBox="0 0 20 20" fill="none" xmlns="http://www.w3.org/2000/svg">
<path fill-rule="evenodd" clip-rule="evenodd" d="M1.04166 9.99935C1.04166 5.05167 5.05232 1.04102 10 1.04102C14.4914 1.04102 18.2094 4.34601 18.858 8.65634C18.9094 8.99768 18.6743 9.31602 18.333 9.36739C17.9917 9.41876 17.6733 9.18369 17.622 8.84236C17.0639 5.13436 13.8636 2.29102 10 2.29102C5.74268 2.29102 2.29166 5.74203 2.29166 9.99935C2.29166 14.2567 5.74268 17.7077 10 17.7077C12.8087 17.7077 15.2685 16.205 16.616 13.9577H14.1667C13.8215 13.9577 13.5417 13.6779 13.5417 13.3327C13.5417 12.9875 13.8215 12.7077 14.1667 12.7077H17.6263C17.6356 12.7075 17.645 12.7075 17.6543 12.7077H17.8333C17.9811 12.7077 18.1274 12.7368 18.2638 12.7933C18.4003 12.8499 18.5244 12.9327 18.6288 13.0372C18.7333 13.1416 18.8162 13.2657 18.8727 13.4022C18.9292 13.5387 18.9583 13.685 18.9583 13.8327V17.4993C18.9583 17.8445 18.6785 18.1243 18.3333 18.1243C17.9882 18.1243 17.7083 17.8445 17.7083 17.4993V14.5664C16.1477 17.1948 13.2798 18.9577 10 18.9577C5.05232 18.9577 1.04166 14.947 1.04166 9.99935ZM10 4.37435C10.3452 4.37435 10.625 4.65417 10.625 4.99935V9.37435H15C15.3452 9.37435 15.625 9.65417 15.625 9.99935C15.625 10.3445 15.3452 10.6243 15 10.6243H10C9.65482 10.6243 9.375 10.3445 9.375 9.99935V4.99935C9.375 4.65417 9.65482 4.37435 10 4.37435Z" fill="#4B5563"/>
</svg>
