<svg width="30" height="30" viewBox="0 0 30 30" fill="none" xmlns="http://www.w3.org/2000/svg">
<path fill-rule="evenodd" clip-rule="evenodd" d="M15 30C23.2843 30 30 23.2843 30 15C30 6.71573 23.2843 0 15 0C6.71573 0 0 6.71573 0 15C0 23.2843 6.71573 30 15 30Z" fill="#F3F4F6"/>
<path fill-rule="evenodd" clip-rule="evenodd" d="M11.1519 11.1513C11.3471 10.9561 11.6637 10.9561 11.859 11.1514L15.0001 14.2931L18.1425 11.1513C18.3378 10.9561 18.6544 10.9561 18.8496 11.1514C19.0449 11.3466 19.0448 11.6632 18.8496 11.8585L15.7075 14.9999L18.8496 18.142C19.0449 18.3373 19.0449 18.6538 18.8496 18.8491C18.6543 19.0444 18.3377 19.0444 18.1425 18.8491L15.0007 15.7073L11.8589 18.8491C11.6637 19.0444 11.3471 19.0444 11.1518 18.8491C10.9566 18.6538 10.9566 18.3373 11.1518 18.142L14.2933 15.0005L11.1518 11.8584C10.9565 11.6631 10.9566 11.3465 11.1519 11.1513Z" fill="black"/>
</svg>
