<svg width="60" height="14" viewBox="0 0 60 14" fill="none" xmlns="http://www.w3.org/2000/svg">
<path d="M3.37031 11.4843C2.92984 11.4866 2.49322 11.4026 2.08543 11.2372C1.67763 11.0718 1.30663 10.8282 0.993645 10.5203C0.680656 10.2124 0.431805 9.84623 0.261312 9.44277C0.0908178 9.03931 0.00202277 8.60642 0 8.16886V5.62045C0.0056153 4.73774 0.363735 3.89334 0.995683 3.27277C1.62763 2.65219 2.48172 2.30619 3.37031 2.31078H5.28518C5.40668 2.30519 5.52806 2.32413 5.64199 2.36646C5.75591 2.4088 5.86001 2.47364 5.94799 2.55708C6.03597 2.64052 6.106 2.74081 6.15384 2.8519C6.20169 2.96299 6.22636 3.08257 6.22636 3.2034C6.22636 3.32423 6.20169 3.4438 6.15384 3.55489C6.106 3.66598 6.03597 3.76628 5.94799 3.84971C5.86001 3.93315 5.75591 3.998 5.64199 4.04033C5.52806 4.08266 5.40668 4.10161 5.28518 4.09601H3.37031C3.16655 4.09449 2.96449 4.13305 2.7758 4.20946C2.5871 4.28587 2.4155 4.39863 2.27087 4.54123C2.12625 4.68383 2.01146 4.85345 1.93313 5.04032C1.8548 5.22719 1.81448 5.42762 1.81449 5.63004V8.16886C1.81448 8.37128 1.8548 8.5717 1.93313 8.75858C2.01146 8.94545 2.12625 9.11507 2.27087 9.25767C2.4155 9.40027 2.5871 9.51302 2.7758 9.58944C2.96449 9.66585 3.16655 9.70441 3.37031 9.70289H5.28518C5.40668 9.69729 5.52806 9.71623 5.64199 9.75857C5.75591 9.8009 5.86001 9.86575 5.94799 9.94919C6.03597 10.0326 6.106 10.1329 6.15384 10.244C6.20169 10.3551 6.22636 10.4747 6.22636 10.5955C6.22636 10.7163 6.20169 10.8359 6.15384 10.947C6.106 11.0581 6.03597 11.1584 5.94799 11.2418C5.86001 11.3253 5.75591 11.3901 5.64199 11.4324C5.52806 11.4748 5.40668 11.4937 5.28518 11.4881L3.37031 11.4843Z" fill="#4B5563"/>
<path d="M32.0855 2.31078C31.1961 2.3067 30.3414 2.65365 29.7094 3.27536C29.0774 3.89707 28.7198 4.74265 28.7152 5.6262V8.16886C28.7152 9.05681 29.0703 9.90839 29.7024 10.5363C30.3344 11.1641 31.1917 11.5169 32.0855 11.5169C32.9794 11.5169 33.8367 11.1641 34.4687 10.5363C35.1008 9.90839 35.4558 9.05681 35.4558 8.16886V5.62045C35.4502 4.73774 35.0921 3.89334 34.4602 3.27277C33.8282 2.65219 32.9741 2.30619 32.0855 2.31078ZM33.6414 8.17461C33.6272 8.57484 33.4571 8.95397 33.1671 9.23211C32.877 9.51026 32.4896 9.66571 32.0865 9.66571C31.6834 9.66571 31.296 9.51026 31.0059 9.23211C30.7159 8.95397 30.5458 8.57484 30.5316 8.17461V5.62045C30.5458 5.22022 30.7159 4.84109 31.0059 4.56294C31.296 4.2848 31.6834 4.12935 32.0865 4.12935C32.4896 4.12935 32.877 4.2848 33.1671 4.56294C33.4571 4.84109 33.6272 5.22022 33.6414 5.62045V8.17461Z" fill="#4B5563"/>
<path d="M7.1151 10.5926C7.1151 10.8316 7.21069 11.0609 7.38083 11.2299C7.55097 11.3989 7.78173 11.4939 8.02235 11.4939C8.26296 11.4939 8.49372 11.3989 8.66387 11.2299C8.83401 11.0609 8.92959 10.8316 8.92959 10.5926V5.62045C8.92958 5.41803 8.96991 5.2176 9.04824 5.03073C9.12657 4.84386 9.24135 4.67424 9.38598 4.53164C9.5306 4.38904 9.70221 4.27629 9.8909 4.19987C10.0796 4.12346 10.2817 4.0849 10.4854 4.08642H11.6436C11.7651 4.09202 11.8865 4.07308 12.0004 4.03074C12.1143 3.98841 12.2184 3.92356 12.3064 3.84012C12.3944 3.75669 12.4644 3.65639 12.5123 3.5453C12.5601 3.43421 12.5848 3.31464 12.5848 3.19381C12.5848 3.07298 12.5601 2.9534 12.5123 2.84231C12.4644 2.73123 12.3944 2.63093 12.3064 2.54749C12.2184 2.46405 12.1143 2.39921 12.0004 2.35687C11.8865 2.31454 11.7651 2.2956 11.6436 2.30119H10.4854C10.0447 2.29918 9.60787 2.38344 9.19994 2.54918C8.792 2.71492 8.42094 2.95889 8.10795 3.26713C7.79496 3.57538 7.54618 3.94187 7.37583 4.34566C7.20547 4.74945 7.11687 5.18263 7.1151 5.62045V10.5926Z" fill="#4B5563"/>
<path d="M19.6775 5.62045C19.6775 4.7325 19.3224 3.88091 18.6904 3.25304C18.0583 2.62516 17.2011 2.27243 16.3072 2.27243C15.4134 2.27243 14.5561 2.62516 13.924 3.25304C13.292 3.88091 12.9369 4.7325 12.9369 5.62045V8.16885C12.9389 8.60642 13.0277 9.0393 13.1982 9.44276C13.3687 9.84623 13.6176 10.2124 13.9305 10.5203C14.2435 10.8281 14.6145 11.0718 15.0223 11.2372C15.4301 11.4026 15.8667 11.4865 16.3072 11.4843C16.897 11.4836 17.4765 11.3302 17.9885 11.0394C18.089 11.209 18.2427 11.3413 18.4261 11.416C18.6094 11.4907 18.8123 11.5038 19.0038 11.4531C19.1953 11.4024 19.3648 11.2909 19.4865 11.1355C19.6081 10.9801 19.6752 10.7895 19.6775 10.5926V5.62045ZM17.8611 8.16885C17.8469 8.56908 17.6769 8.94821 17.3868 9.22636C17.0968 9.50451 16.7094 9.65996 16.3062 9.65996C15.9031 9.65996 15.5157 9.50451 15.2257 9.22636C14.9356 8.94821 14.7656 8.56908 14.7514 8.16885V5.62045C14.7656 5.22022 14.9356 4.84109 15.2257 4.56294C15.5157 4.28479 15.9031 4.12934 16.3062 4.12934C16.7094 4.12934 17.0968 4.28479 17.3868 4.56294C17.6769 4.84109 17.8469 5.22022 17.8611 5.62045V8.16885Z" fill="#4B5563"/>
<path d="M26.6595 2.31077C26.5409 2.31002 26.4234 2.33249 26.3136 2.37692C26.2038 2.42134 26.1039 2.48684 26.0196 2.56966C25.9354 2.65248 25.8684 2.75101 25.8225 2.85958C25.7766 2.96816 25.7527 3.08467 25.7522 3.20243V8.16885C25.7522 8.57875 25.5883 8.97186 25.2965 9.26171C25.0047 9.55155 24.609 9.71438 24.1964 9.71438C23.7837 9.71438 23.388 9.55155 23.0962 9.26171C22.8045 8.97186 22.6406 8.57875 22.6406 8.16885V3.19668C22.6406 2.95765 22.545 2.72842 22.3748 2.5594C22.2047 2.39039 21.9739 2.29543 21.7333 2.29543C21.4927 2.29543 21.2619 2.39039 21.0918 2.5594C20.9217 2.72842 20.8261 2.95765 20.8261 3.19668V8.16885C20.829 8.89506 21.0714 9.60031 21.5163 10.1766C21.9611 10.7529 22.5839 11.1684 23.2891 11.3596V12.8937C23.2891 13.1327 23.3847 13.3619 23.5549 13.5309C23.725 13.6999 23.9558 13.7949 24.1964 13.7949C24.437 13.7949 24.6678 13.6999 24.8379 13.5309C25.008 13.3619 25.1036 13.1327 25.1036 12.8937V11.3596C25.809 11.1687 26.432 10.7532 26.8769 10.1769C27.3218 9.60054 27.5641 8.89514 27.5667 8.16885V3.19668C27.5636 2.96 27.4666 2.73411 27.2967 2.56819C27.1267 2.40226 26.8977 2.30974 26.6595 2.31077Z" fill="#4B5563"/>
<path d="M38.4131 4.09025H39.967C40.1707 4.08874 40.3728 4.12729 40.5615 4.20371C40.7502 4.28012 40.9218 4.39287 41.0664 4.53547C41.211 4.67807 41.3258 4.8477 41.4041 5.03457C41.4825 5.22144 41.5228 5.42186 41.5228 5.62428V10.5926C41.5228 10.8316 41.6184 11.0609 41.7885 11.2299C41.9587 11.3989 42.1894 11.4939 42.43 11.4939C42.6707 11.4939 42.9014 11.3989 43.0716 11.2299C43.2417 11.0609 43.3373 10.8316 43.3373 10.5926V5.62045C43.3312 4.73923 42.9739 3.89629 42.3438 3.27604C41.7136 2.6558 40.8618 2.30873 39.9747 2.31078H37.5135C37.395 2.31002 37.2775 2.3325 37.1677 2.37692C37.0579 2.42135 36.958 2.48685 36.8737 2.56967C36.7895 2.65249 36.7225 2.75101 36.6766 2.85959C36.6307 2.96817 36.6068 3.08468 36.6063 3.20244V10.5926C36.6063 10.8316 36.7019 11.0609 36.872 11.2299C37.0422 11.3989 37.2729 11.4939 37.5135 11.4939C37.7542 11.4939 37.9849 11.3989 38.1551 11.2299C38.3252 11.0609 38.4208 10.8316 38.4208 10.5926L38.4131 4.09025Z" fill="#4B5563"/>
<path d="M59.059 6.88587L55.5594 10.3278V3.44389H55.5613L59.059 6.88587Z" fill="#903392"/>
<path d="M52.0597 10.3278L55.5594 6.88587H52.0597V10.3278Z" fill="#295CA9"/>
<path d="M55.5594 3.44389H52.0597V6.88587H55.5594L55.5594 3.44389Z" fill="#EE5283"/>
<path d="M55.5594 3.44389H52.0597V0L55.5594 3.44198L55.5594 3.44389Z" fill="#F69036"/>
<path d="M52.0597 6.88587L45.0604 0H52.0597V6.88587Z" fill="#FFC332"/>
<path d="M45.0604 13.7698L52.0597 6.88587L52.0597 13.7698H45.0604Z" fill="#00AF84"/>
<path d="M55.5594 6.88587L55.5594 10.3278L52.0597 13.7698L52.0597 10.3278L55.5594 6.88587Z" fill="#0081C5"/>
</svg>
