<svg width="10" height="10" viewBox="0 0 10 10" fill="none" xmlns="http://www.w3.org/2000/svg">
<g id="Frame" clip-path="url(#clip0_2093_7869)">
<path id="Vector" d="M5.00003 9.835C4.93503 9.835 4.87003 9.82 4.81003 9.8C4.75003 9.775 4.69503 9.74 4.65003 9.695L0.645029 5.685C0.450029 5.49 0.450029 5.175 0.645029 4.98C0.840029 4.785 1.15503 4.785 1.35003 4.98L4.49503 8.125V1C4.49503 0.725 4.72003 0.5 4.99503 0.5C5.27003 0.5 5.49503 0.725 5.49503 1V8.125L8.64003 4.98C8.83503 4.785 9.15003 4.785 9.34503 4.98C9.54003 5.175 9.54003 5.49 9.34503 5.685L5.34503 9.685C5.30003 9.735 5.24503 9.77 5.19003 9.79C5.13003 9.815 5.06503 9.83 4.99503 9.83L5.00003 9.835Z" fill="#EF4444"/>
</g>
<defs>
<clipPath id="clip0_2093_7869">
<rect width="9" height="9.335" fill="white" transform="translate(0.5 0.5)"/>
</clipPath>
</defs>
</svg>
