<svg width="28" height="28" viewBox="0 0 28 28" fill="none" xmlns="http://www.w3.org/2000/svg">
<path fill-rule="evenodd" clip-rule="evenodd" d="M25.3751 4.6664C25.375 3.53892 24.4609 2.625 23.3335 2.625H4.66664C3.53906 2.625 2.62497 3.53908 2.62497 4.66667V6.51675C2.62497 7.05823 2.84007 7.57754 3.22296 7.96043L10.7062 15.4437C10.7609 15.4984 10.7916 15.5726 10.7916 15.6499L10.7916 22.4224C10.7916 23.3593 11.4292 24.1759 12.3381 24.4031L14.6715 24.9865C15.9601 25.3086 17.2083 24.334 17.2083 23.0058V15.6499C17.2083 15.5726 17.239 15.4984 17.2937 15.4437L24.7773 7.96051C25.1603 7.57756 25.3754 7.05812 25.3754 6.51653L25.3751 4.6664ZM23.3335 4.375C23.4945 4.375 23.6251 4.50556 23.6251 4.66663L23.6254 6.51676C23.6254 6.59413 23.5946 6.66833 23.5399 6.72304L16.0563 14.2062C15.6734 14.5891 15.4583 15.1084 15.4583 15.6499L15.4583 23.0058C15.4583 23.1955 15.28 23.3347 15.0959 23.2887L12.7626 22.7054C12.6327 22.6729 12.5416 22.5563 12.5416 22.4224L12.5416 15.6499C12.5416 15.1084 12.3265 14.5891 11.9437 14.2062L4.4604 6.72299C4.4057 6.66829 4.37497 6.59411 4.37497 6.51675V4.66667C4.37497 4.50558 4.50555 4.375 4.66664 4.375H23.3335Z" fill="white"/>
</svg>
