<svg width="71" height="89" viewBox="0 0 71 89" fill="none" xmlns="http://www.w3.org/2000/svg">
<g id="Group 1171277227">
<path id="Vector" d="M63.4899 39.4774C63.4899 39.4774 67.7277 39.2332 67.7277 35.1819V7.36461C67.7277 4.65599 68.7126 2.03884 70.4999 0H48.7436C44.4902 0 41.0415 3.44121 41.0415 7.68711V16.8743C41.0415 16.8743 43.061 39.4782 51.755 39.4782" fill="#B5D1FB"/>
<g id="Group" opacity="0.26">
<path id="Vector_2" d="M50.2747 14.4554C50.2429 14.4175 50.2296 14.374 50.2343 14.3244L50.2685 13.9678C50.305 13.5911 50.4106 13.2732 50.5854 13.0151C50.7609 12.7569 50.9606 12.5507 51.1858 12.3972C51.4111 12.2437 51.7039 12.0693 52.0635 11.8732C52.4635 11.6716 52.7595 11.4894 52.9505 11.3274C53.1416 11.1654 53.2488 10.9607 53.2729 10.7127C53.2985 10.4452 53.2146 10.2243 53.0204 10.0506C52.8263 9.87698 52.556 9.77387 52.208 9.74054C51.8305 9.7041 51.5214 9.76224 51.2813 9.91496C51.0413 10.0669 50.9077 10.2824 50.8813 10.5599L50.8658 10.7235C50.8557 10.8328 50.7904 10.8817 50.6716 10.87L48.5636 10.5786C48.5138 10.5739 48.4735 10.5499 48.4424 10.5072C48.4113 10.4646 48.3981 10.4181 48.4028 10.3685L48.4074 10.3235C48.4672 9.69868 48.6793 9.16145 49.0436 8.71027C49.4079 8.25986 49.8879 7.92807 50.4852 7.71488C51.0825 7.50169 51.7482 7.43037 52.4837 7.50092C53.2092 7.56991 53.8306 7.75519 54.3479 8.05443C54.8652 8.35444 55.2489 8.7436 55.499 9.22269C55.7483 9.70178 55.8454 10.239 55.7879 10.8344C55.7452 11.2809 55.6287 11.6522 55.44 11.9491C55.2512 12.2461 55.0353 12.4833 54.793 12.66C54.5506 12.8368 54.2438 13.0228 53.8749 13.2174C53.5051 13.4128 53.2278 13.5887 53.0422 13.7453C52.8566 13.9027 52.7517 14.1058 52.7284 14.3531L52.7082 14.5616C52.7035 14.6113 52.6818 14.6516 52.6437 14.6834C52.6057 14.7151 52.5614 14.7283 52.5117 14.7237L50.3951 14.5213C50.3454 14.5167 50.305 14.495 50.2731 14.457L50.2747 14.4554ZM50.1504 17.6261C49.9298 17.3602 49.8382 17.0385 49.8747 16.6617C49.912 16.2749 50.0611 15.9741 50.3221 15.7586C50.5838 15.5431 50.9023 15.4539 51.2806 15.4904C51.6581 15.5268 51.9571 15.6749 52.1777 15.9361C52.3983 16.1974 52.4899 16.5214 52.4527 16.9082C52.4177 17.2749 52.2662 17.5711 51.999 17.7959C51.7318 18.0207 51.4095 18.1145 51.032 18.0788C50.6646 18.0439 50.3702 17.8928 50.1504 17.6269V17.6261Z" fill="#0055DD"/>
</g>
<path id="Vector_3" opacity="0.33" d="M42.9172 16.8743V7.68711C42.9172 3.44199 46.3651 0 50.6193 0H48.7451C44.4917 0 41.043 3.44121 41.043 7.68711V16.8743C41.043 16.8743 43.0625 39.4782 51.7565 39.4782H53.6307C44.9367 39.4782 42.9172 16.8743 42.9172 16.8743Z" fill="#4088FB"/>
<path id="Vector_4" d="M51.7598 39.4783H63.4931C63.4931 39.4783 58.7403 39.4783 58.7403 35.2533V20.6605C58.7403 19.5272 58.2781 18.4232 57.4113 17.6899C57.0175 17.3565 56.5251 17.0759 55.9184 16.9464C53.8391 16.5015 51.7598 18.2806 51.7598 18.2806L49.0117 23.0242L51.7598 39.4783Z" fill="#01255D"/>
<path id="Vector_5" d="M55.3569 16.8766C55.3569 16.8766 51.6931 16.6789 51.6931 20.9775V83.2798C51.6931 86.0752 49.5198 88.4498 46.7212 88.5676C46.6225 88.5715 46.5223 88.5738 46.4206 88.5738H9.28809V26.9684C9.28809 21.3938 13.8157 16.875 19.4012 16.875H55.3561L55.3569 16.8766Z" fill="#B5D1FB"/>
<g id="Group_2" opacity="0.33">
<path id="Vector_6" d="M55.3551 16.8764C55.3481 16.8764 55.2922 16.8733 55.1982 16.8764H55.3551Z" fill="#C8C8DB"/>
<path id="Vector_7" d="M21.6215 16.875H19.4016C13.8162 16.875 9.28857 21.3938 9.28857 26.9676V88.5738H11.5139V26.9676C11.5139 21.3953 16.0392 16.8773 21.6215 16.875Z" fill="#4088FB"/>
</g>
<path id="Vector_8" d="M46.6426 88.5748C46.6426 88.5748 43.1271 87.9322 43.1271 84.77V79.6621H0.5V82.67C0.5 85.9313 3.14866 88.5748 6.41638 88.5748H46.6426Z" fill="#01255D"/>
<path id="Vector_9" d="M62.5517 75.6652C60.6759 77.1102 57.7562 76.2884 56.4047 73.938L54.7393 71.0425L53.5766 69.0184L50.3648 63.4291L50.103 62.974L51.6549 61.7771L53.3979 60.4336L55.7118 62.7034L58.1329 65.0787L58.1376 65.081L60.227 67.13L62.4313 69.2905C64.3701 71.1914 64.4275 74.2194 62.5517 75.6644V75.6652Z" fill="#6B7280"/>
<g id="Group_3" style="mix-blend-mode:multiply" opacity="0.2">
<path id="Vector_10" d="M62.5516 75.6652C62.3543 75.8194 62.1423 75.9466 61.924 76.0489C63.2647 74.4892 63.0441 71.8658 61.2988 70.1557L52.27 61.3034L53.3978 60.4336L62.4312 69.2913C64.37 71.1921 64.4274 74.2201 62.5516 75.6652Z" fill="#596291"/>
</g>
<g id="Group_4" style="mix-blend-mode:overlay">
<path id="Vector_11" d="M60.2278 67.1313C60.2278 67.1313 58.8165 70.4012 54.7402 71.0431L53.5767 69.019C53.5767 69.019 57.2926 68.1399 58.1338 65.0801L58.1384 65.0824L60.2278 67.1313Z" fill="#0146B3"/>
</g>
<g id="Group_5" style="mix-blend-mode:multiply" opacity="0.17">
<path id="Vector_12" d="M55.5106 62.5058C52.4044 64.0229 50.3647 63.4283 50.3647 63.4283L51.6549 61.7771L53.3979 60.4336L55.4927 62.4895L55.5106 62.5058Z" fill="#596291"/>
</g>
<path id="Vector_13" d="M43.1061 40.1472C36.3555 41.155 31.7021 47.4335 32.7119 54.1709C33.7216 60.9084 40.0124 65.5528 46.763 64.545C53.5136 63.5372 58.167 57.2587 57.1572 50.5212C56.1475 43.7837 49.8567 39.1394 43.1061 40.1472ZM46.5261 62.9635C40.6509 63.8403 35.1757 59.7983 34.2964 53.9345C33.4172 48.0707 37.4678 42.6062 43.343 41.7286C49.2182 40.8518 54.6934 44.8939 55.5727 50.7576C56.4512 56.6214 52.4013 62.086 46.5261 62.9635Z" fill="#6B7280"/>
<path id="Vector_14" d="M44.9345 61.8806C50.2113 61.8806 54.4891 57.6112 54.4891 52.3446C54.4891 47.078 50.2113 42.8086 44.9345 42.8086C39.6576 42.8086 35.3799 47.078 35.3799 52.3446C35.3799 57.6112 39.6576 61.8806 44.9345 61.8806Z" fill="#F7FAFF"/>
<g id="Group_6" opacity="0.14">
<path id="Vector_15" d="M25.1739 55.7854C25.0745 55.666 25.0333 55.5296 25.0481 55.3738L25.1553 54.2544C25.2687 53.0729 25.5996 52.0775 26.1495 51.2667C26.6987 50.4565 27.327 49.8108 28.0331 49.3286C28.7391 48.848 29.6565 48.2999 30.7843 47.6859C32.0395 47.0525 32.9661 46.4828 33.5658 45.975C34.1638 45.4672 34.5009 44.8253 34.5763 44.0478C34.6571 43.2082 34.393 42.5167 33.7856 41.9717C33.1774 41.4275 32.3284 41.1027 31.2387 40.9988C30.0541 40.8856 29.0863 41.0678 28.3337 41.5446C27.5803 42.0221 27.1624 42.6958 27.0785 43.5656L27.0295 44.0788C26.9969 44.4214 26.7934 44.5742 26.4198 44.5377L19.8121 43.6237C19.656 43.609 19.5294 43.5338 19.4331 43.3989C19.3352 43.2648 19.2948 43.1198 19.3096 42.9632L19.3228 42.8237C19.5108 40.8655 20.1749 39.1802 21.3167 37.7669C22.4577 36.3545 23.9646 35.3141 25.8365 34.6459C27.7076 33.9776 29.7963 33.7544 32.1016 33.9745C34.3751 34.1916 36.3232 34.7707 37.9465 35.7103C39.5691 36.6498 40.7723 37.8708 41.5552 39.3732C42.3382 40.8756 42.6403 42.5594 42.4617 44.4253C42.3273 45.8246 41.9638 46.9898 41.3719 47.9216C40.7793 48.8526 40.1027 49.5968 39.3423 50.1511C38.5819 50.7062 37.6219 51.2891 36.463 51.8992C35.3033 52.5109 34.4334 53.0628 33.8516 53.5559C33.269 54.0497 32.9413 54.6854 32.8675 55.4622L32.8046 56.1149C32.7898 56.2707 32.7222 56.3979 32.6034 56.4955C32.483 56.5948 32.3463 56.6358 32.1902 56.6211L25.5553 55.987C25.3992 55.9723 25.2718 55.9056 25.1739 55.7854ZM24.7856 65.7253C24.095 64.8904 23.8069 63.8826 23.9203 62.7012C24.0368 61.4887 24.5044 60.5453 25.3238 59.8709C26.1433 59.1964 27.1437 58.9158 28.3282 59.029C29.512 59.1421 30.4487 59.6081 31.1408 60.4275C31.8321 61.2461 32.1203 62.2624 32.0037 63.4749C31.8934 64.6253 31.4189 65.5525 30.5815 66.2564C29.7435 66.961 28.7329 67.2564 27.55 67.1432C26.3973 67.0331 25.4761 66.561 24.7856 65.7261V65.7253Z" fill="#0055DD"/>
</g>
</g>
</svg>
