<svg width="16" height="16" viewBox="0 0 16 16" fill="none" xmlns="http://www.w3.org/2000/svg">
<g id="Outline/Navigation/arrow-up">
<path id="Vector (Stroke)" fill-rule="evenodd" clip-rule="evenodd" d="M8.16663 3.5C8.29923 3.5 8.42641 3.55268 8.52018 3.64645L12.5202 7.64645C12.7154 7.84171 12.7154 8.15829 12.5202 8.35355C12.3249 8.54882 12.0083 8.54882 11.8131 8.35355L8.66663 5.20711V12.3333C8.66663 12.6095 8.44277 12.8333 8.16663 12.8333C7.89048 12.8333 7.66663 12.6095 7.66663 12.3333V5.20711L4.52018 8.35355C4.32492 8.54882 4.00833 8.54882 3.81307 8.35355C3.61781 8.15829 3.61781 7.84171 3.81307 7.64645L7.81307 3.64645C7.90684 3.55268 8.03402 3.5 8.16663 3.5Z" fill="#1EAE53"/>
</g>
</svg>
