<svg width="10" height="10" viewBox="0 0 10 10" fill="none" xmlns="http://www.w3.org/2000/svg">
<path fill-rule="evenodd" clip-rule="evenodd" d="M5.16667 0.5C5.29928 0.5 5.42646 0.552678 5.52023 0.646447L9.52023 4.64645C9.71549 4.84171 9.71549 5.15829 9.52023 5.35355C9.32496 5.54882 9.00838 5.54882 8.81312 5.35355L5.66667 2.20711V9.33333C5.66667 9.60948 5.44281 9.83333 5.16667 9.83333C4.89053 9.83333 4.66667 9.60948 4.66667 9.33333V2.20711L1.52023 5.35355C1.32496 5.54882 1.00838 5.54882 0.813118 5.35355C0.617856 5.15829 0.617856 4.84171 0.813118 4.64645L4.81312 0.646447C4.90689 0.552678 5.03406 0.5 5.16667 0.5Z" fill="#1EAE53"/>
</svg>
