<svg width="16" height="16" viewBox="0 0 16 16" fill="none" xmlns="http://www.w3.org/2000/svg">
<g clip-path="url(#clip0_1847_4001)">
<path fill-rule="evenodd" clip-rule="evenodd" d="M15.166 8.00008C15.166 11.9582 11.9575 15.1667 7.99935 15.1667C4.04121 15.1667 0.832682 11.9582 0.832682 8.00008C0.832683 4.04194 4.04121 0.833413 7.99935 0.833413C11.9575 0.833414 15.166 4.04194 15.166 8.00008ZM7.99935 14.1667C11.4052 14.1667 14.166 11.4059 14.166 8.00008C14.166 4.59422 11.4052 1.83341 7.99935 1.83341C4.59349 1.83341 1.83268 4.59422 1.83268 8.00008C1.83268 11.4059 4.59349 14.1667 7.99935 14.1667ZM7.65634 11.3707C7.45202 11.185 7.43696 10.8687 7.62271 10.6644L7.62938 10.6571C7.81513 10.4527 8.13136 10.4377 8.33569 10.6234C8.54002 10.8092 8.55507 11.1254 8.36932 11.3298L8.36265 11.3371C8.1769 11.5414 7.86067 11.5565 7.65634 11.3707ZM7.99935 8.83341C7.72321 8.83341 7.49935 8.60956 7.49935 8.33341L7.49935 5.00008C7.49935 4.72394 7.72321 4.50008 7.99935 4.50008C8.27549 4.50008 8.49935 4.72394 8.49935 5.00008L8.49935 8.33341C8.49935 8.60956 8.27549 8.83341 7.99935 8.83341Z" fill="#EF4444"/>
</g>
<defs>
<clipPath id="clip0_1847_4001">
<rect width="16" height="16" fill="white" transform="translate(16 16) rotate(-180)"/>
</clipPath>
</defs>
</svg>
