<svg width="24" height="25" viewBox="0 0 24 25" fill="none" xmlns="http://www.w3.org/2000/svg">
<g id="Outline/Activities/stats-square-up">
<path id="Vector (Stroke)" fill-rule="evenodd" clip-rule="evenodd" d="M3.75 4.25V20.75H20.25V4.25H3.75ZM2.64541 3.14541C2.89858 2.89223 3.24196 2.75 3.6 2.75H20.4C20.758 2.75 21.1014 2.89223 21.3546 3.14541C21.6078 3.39858 21.75 3.74196 21.75 4.1V20.9C21.75 21.258 21.6078 21.6014 21.3546 21.8546C21.1014 22.1078 20.758 22.25 20.4 22.25H3.6C3.24196 22.25 2.89858 22.1078 2.64541 21.8546C2.39223 21.6014 2.25 21.258 2.25 20.9V4.1C2.25 3.74196 2.39223 3.39858 2.64541 3.14541ZM16 7.75C16.4142 7.75 16.75 8.08579 16.75 8.5V16.5C16.75 16.9142 16.4142 17.25 16 17.25C15.5858 17.25 15.25 16.9142 15.25 16.5V8.5C15.25 8.08579 15.5858 7.75 16 7.75ZM12 10.75C12.4142 10.75 12.75 11.0858 12.75 11.5V16.5C12.75 16.9142 12.4142 17.25 12 17.25C11.5858 17.25 11.25 16.9142 11.25 16.5V11.5C11.25 11.0858 11.5858 10.75 12 10.75ZM8 12.75C8.41421 12.75 8.75 13.0858 8.75 13.5V16.5C8.75 16.9142 8.41421 17.25 8 17.25C7.58579 17.25 7.25 16.9142 7.25 16.5V13.5C7.25 13.0858 7.58579 12.75 8 12.75Z" fill="#111827"/>
</g>
</svg>
