<svg width="24" height="24" viewBox="0 0 24 24" fill="none" xmlns="http://www.w3.org/2000/svg">
<path fill-rule="evenodd" clip-rule="evenodd" d="M6.25 2C6.25 1.58579 6.58579 1.25 7 1.25H16.5C16.6989 1.25 16.8897 1.32902 17.0303 1.46967L21.5303 5.96967C21.671 6.11032 21.75 6.30109 21.75 6.5V19C21.75 19.4142 21.4142 19.75 21 19.75C20.5858 19.75 20.25 19.4142 20.25 19V6.81066L16.1893 2.75H7C6.58579 2.75 6.25 2.41421 6.25 2ZM4.5 5.75C4.30109 5.75 4.11032 5.82902 3.96967 5.96967C3.82902 6.11032 3.75 6.30109 3.75 6.5V20.5C3.75 20.6989 3.82902 20.8897 3.96967 21.0303C4.11032 21.171 4.30109 21.25 4.5 21.25H16.5C16.6989 21.25 16.8897 21.171 17.0303 21.0303C17.171 20.8897 17.25 20.6989 17.25 20.5V8.81066L14.1893 5.75H4.5ZM17.294 8.85466C17.2939 8.85455 17.2941 8.85477 17.294 8.85466V8.85466ZM2.90901 4.90901C3.33097 4.48705 3.90326 4.25 4.5 4.25H14.252C14.6099 4.25032 14.9537 4.39276 15.2067 4.646L18.354 7.79334C18.3539 7.79323 18.3541 7.79345 18.354 7.79334C18.4798 7.91904 18.5798 8.06869 18.6477 8.23304C18.7155 8.39707 18.7502 8.57285 18.75 8.75032C18.75 8.75083 18.75 8.75133 18.75 8.75184L18 8.75L18.75 8.75032V20.5C18.75 21.0967 18.5129 21.669 18.091 22.091C17.669 22.5129 17.0967 22.75 16.5 22.75H4.5C3.90326 22.75 3.33097 22.5129 2.90901 22.091C2.48705 21.669 2.25 21.0967 2.25 20.5V6.5C2.25 5.90326 2.48705 5.33097 2.90901 4.90901ZM6.25 10C6.25 9.58579 6.58579 9.25 7 9.25H10C10.4142 9.25 10.75 9.58579 10.75 10C10.75 10.4142 10.4142 10.75 10 10.75H7C6.58579 10.75 6.25 10.4142 6.25 10ZM6.25 14C6.25 13.5858 6.58579 13.25 7 13.25H8C8.41421 13.25 8.75 13.5858 8.75 14C8.75 14.4142 8.41421 14.75 8 14.75H7C6.58579 14.75 6.25 14.4142 6.25 14ZM6.25 18C6.25 17.5858 6.58579 17.25 7 17.25H14C14.4142 17.25 14.75 17.5858 14.75 18C14.75 18.4142 14.4142 18.75 14 18.75H7C6.58579 18.75 6.25 18.4142 6.25 18Z" fill="#000"/>
</svg>
