<svg width="118" height="76" viewBox="0 0 118 76" fill="none" xmlns="http://www.w3.org/2000/svg">
<path d="M65.9666 6.22087C65.1258 2.85705 62.117 0.507812 58.6496 0.507812H16.7847C13.3176 0.507812 10.3085 2.85705 9.46774 6.22087C-0.573775 46.3924 0.00621983 43.9749 0.00621983 44.2525V68.3875C0.00621983 72.5462 3.38964 75.9297 7.54841 75.9297H67.8859C72.0447 75.9297 75.4281 72.5462 75.4281 68.3875V44.2525C75.4282 43.9801 75.9814 46.292 65.9666 6.22087ZM12.3946 6.95246C12.8991 4.93432 14.7044 3.52469 16.7847 3.52469H58.6496C60.73 3.52469 62.5353 4.93417 63.0397 6.95246L71.9878 42.7441H59.0633C55.2349 42.7441 51.7998 45.1757 50.515 48.7948C48.5974 54.1982 43.4542 57.8284 37.7173 57.8284C31.9803 57.8284 26.8372 54.1982 24.9194 48.7948C23.6348 45.1757 20.1995 42.7441 16.3711 42.7441H3.44681L12.3946 6.95246ZM72.4114 68.3875C72.4114 70.8827 70.3813 72.9128 67.886 72.9128H7.54856C5.0533 72.9128 3.02325 70.8827 3.02325 68.3875V45.7609H16.3711C18.9252 45.7609 21.218 47.3857 22.0763 49.804C24.4204 56.4081 30.7059 60.8453 37.7173 60.8453C44.7287 60.8453 51.014 56.4081 53.3581 49.804C54.2164 47.3858 56.5094 45.7609 59.0633 45.7609H72.4112L72.4114 68.3875Z" fill="#B5D1FB"/>
<path d="M18.8336 44.7565H1.71404C1.54111 50.1518 1.15376 61.1913 0.987755 62.1874C0.780245 63.4324 1.71404 71.0065 2.9591 72.3554C4.20416 73.7042 6.69428 74.1192 8.45811 74.8455C10.2219 75.5718 16.3435 74.8455 17.4848 74.8455H35.3306C39.8959 74.8455 59.6093 75.468 63.552 75.468C67.4947 75.468 71.2299 73.1854 72.1637 72.4591C72.9107 71.8781 72.9591 68.8969 72.8899 67.4789L74.0312 50.5668L73.305 44.7565C71.887 44.6181 68.4077 44.3207 65.8346 44.2377C62.6182 44.1339 57.8455 45.1715 55.6666 45.794C53.4878 46.4165 53.5915 47.8691 52.1389 49.7367C50.6864 51.6043 48.9225 54.9245 46.9512 56.4808C44.9799 58.0371 43.1123 58.3484 39.7921 58.9709C36.4719 59.5934 34.9156 58.5559 32.1142 57.6221C29.3129 56.6883 28.1716 56.4808 26.2002 53.6794C24.6231 51.4383 20.632 46.797 18.8336 44.7565Z" fill="#B5D1FB"/>
<path d="M40.4103 71.753C40.1804 71.753 39.9504 71.6674 39.774 71.4963C38.8494 70.6013 37.4106 70.5927 36.4964 71.4782C36.1403 71.8244 35.567 71.8197 35.2149 71.4688C34.8636 71.1187 34.8676 70.5542 35.2245 70.2088C36.8238 68.6591 39.4354 68.6645 41.0467 70.2268C41.4028 70.5723 41.4076 71.1367 41.0563 71.4869C40.879 71.6635 40.6451 71.753 40.4103 71.753Z" fill="#7BADFB"/>
<path d="M57.7216 61.8419C57.7216 63.4042 56.4329 64.672 54.8432 64.672C53.2535 64.672 51.9648 63.4049 51.9648 61.8419C51.9648 60.2788 53.2535 59.0117 54.8432 59.0117C56.4329 59.0117 57.7216 60.2788 57.7216 61.8419Z" fill="#7BADFB"/>
<path d="M60.3207 56.7826C60.2113 56.7826 60.1011 56.7629 59.9933 56.7221L53.3559 54.1958C52.8889 54.0176 52.6573 53.5018 52.8386 53.0425C53.0182 52.5825 53.5436 52.3556 54.0115 52.533L60.6488 55.0593C61.1159 55.2375 61.3475 55.7533 61.1662 56.2126C61.0273 56.5659 60.684 56.7826 60.3215 56.7826H60.3207Z" fill="#7BADFB"/>
<path d="M16.9155 61.8419C16.9155 63.4042 18.2042 64.672 19.7939 64.672C21.3836 64.672 22.6722 63.4049 22.6722 61.8419C22.6722 60.2788 21.3836 59.0117 19.7939 59.0117C18.2042 59.0117 16.9155 60.2788 16.9155 61.8419Z" fill="#7BADFB"/>
<path d="M14.3165 56.7833C13.9532 56.7833 13.6099 56.5666 13.4718 56.2134C13.2905 55.7541 13.5229 55.2383 13.9891 55.0601L20.6257 52.5345C21.0936 52.3579 21.6182 52.5848 21.7986 53.044C21.9799 53.5033 21.7475 54.0191 21.2812 54.1973L14.6439 56.7236C14.5361 56.7645 14.4259 56.7841 14.3165 56.7841V56.7833Z" fill="#7BADFB"/>
<g clip-path="url(#clip0_1029_3741)">
<path d="M115.535 31.4888L105.942 51.8548C105.071 53.7036 102.888 54.5041 101.07 53.6476L89.2397 48.0755L83.3444 52.2336C82.4657 52.8461 81.2733 52.2845 81.1945 51.221L80.6384 44.0241L71.2671 39.6101C69.4487 38.7536 68.6754 36.5604 69.5462 34.7116L79.139 14.3456C80.0098 12.4968 82.1932 11.6963 84.0116 12.5528L113.813 26.5899C115.631 27.4464 116.405 29.6396 115.534 31.4884L115.535 31.4888Z" fill="#0055DD"/>
<path d="M91.2785 35.7816C90.6771 35.4984 90.4229 34.7752 90.7093 34.1673L91.0891 33.3609C91.6961 32.0721 93.0019 31.2777 94.4159 31.3368C95.4386 31.3791 96.3989 30.7676 96.8052 29.8143C97.6167 27.9071 95.8174 25.7989 93.7633 26.5092C93.1219 26.7308 92.6085 27.192 92.3172 27.8105C92.0258 28.429 91.3105 28.6825 90.71 28.3997C90.1096 28.1169 89.8544 27.3933 90.1408 26.7853C90.7167 25.5628 91.7329 24.6483 93.0016 24.2102C96.9942 22.8313 100.672 26.8751 99.0203 30.7546C98.2178 32.6402 96.3184 33.8498 94.2937 33.7655C93.8568 33.7471 93.453 33.9904 93.2669 34.3855L92.887 35.1919C92.6002 35.8008 91.8803 36.0639 91.2799 35.7811L91.2785 35.7816Z" fill="white"/>
<path d="M91.3558 39.4521C90.9669 40.2777 89.9888 40.6395 89.1733 40.2554C88.3579 39.8713 88.0106 38.884 88.399 38.0594C88.7874 37.2347 89.7689 36.8781 90.5834 37.2617C91.3979 37.6453 91.7446 38.6265 91.3558 39.4521Z" fill="white"/>
</g>
<defs>
<clipPath id="clip0_1029_3741">
<rect width="40.2313" height="36.8786" fill="white" transform="translate(80.7148 11) rotate(25.2214)"/>
</clipPath>
</defs>
</svg>
