<svg width="124" height="124" viewBox="0 0 124 124" fill="none" xmlns="http://www.w3.org/2000/svg">
<circle cx="62" cy="62" r="62" fill="#B5D1FB"/>
<path d="M87.425 85.1749C86.75 85.1749 86.3 84.95 85.85 84.5C84.95 83.5999 84.95 82.25 85.85 81.3499C85.85 81.3499 92.6 74.375 92.6 62C92.6 49.625 85.85 42.65 85.85 42.65C84.95 41.75 84.95 40.4 85.85 39.5C86.75 38.6 88.1 38.6 89 39.5C89.225 39.725 97.1 47.825 97.1 62C97.1 76.175 89.225 84.2749 89 84.5C88.55 84.95 88.1 85.1749 87.425 85.1749ZM36.575 85.1749C35.9 85.1749 35.45 84.95 35 84.5C34.775 84.2749 26.9 76.175 26.9 62C26.675 47.825 34.55 39.725 35 39.5C35.9 38.6 37.25 38.6 38.15 39.5C39.05 40.4 39.05 41.75 38.15 42.65C37.925 42.875 31.4 49.85 31.4 62C31.4 74.375 38.15 81.3499 38.15 81.3499C39.05 82.25 39.05 83.5999 38.15 84.5C37.7 84.95 37.025 85.1749 36.575 85.1749ZM78.425 76.1749C77.75 76.1749 77.3 75.95 76.85 75.5C75.95 74.5999 75.95 73.25 76.85 72.35C76.85 72.35 80.675 68.3 80.675 62C80.675 55.7 76.85 51.65 76.85 51.65C75.95 50.75 75.95 49.4 76.85 48.5C77.75 47.6 79.1 47.6 80 48.5C80.225 48.725 85.175 53.675 85.175 62C85.175 70.325 80.225 75.2749 80 75.5C79.55 75.95 79.1 76.1749 78.425 76.1749ZM45.575 76.1749C44.9 76.1749 44.45 75.95 44 75.5C43.775 75.2749 38.825 70.325 38.825 62C38.825 53.675 43.775 48.725 44 48.5C44.9 47.6 46.25 47.6 47.15 48.5C48.05 49.4 48.05 50.75 47.15 51.65C47.15 51.65 43.325 55.7 43.325 62C43.325 68.3 47.15 72.35 47.15 72.35C48.05 73.25 48.05 74.5999 47.15 75.5C46.7 75.95 46.025 76.1749 45.575 76.1749Z" fill="#003399"/>
<path d="M62 64.9249C62.9 64.9249 63.575 64.7 64.025 64.025C64.7 63.575 64.9249 62.675 64.9249 62C64.9249 61.1 64.7 60.425 64.025 59.975C63.575 59.525 62.675 59.075 62 59.075C61.1 59.075 60.425 59.3 59.975 59.975C59.525 60.65 59.075 61.325 59.075 62C59.075 62.9 59.3 63.575 59.975 64.025C60.425 64.7 61.1 64.9249 62 64.9249Z" fill="#003399"/>
<path d="M62 67.175C60.65 67.175 59.3 66.725 58.4 65.6C57.5 64.475 56.825 63.35 56.825 62C56.825 60.65 57.275 59.3 58.4 58.4C60.425 56.375 63.8 56.375 65.825 58.4C66.725 59.3 67.4 60.65 67.4 62C67.4 63.35 66.95 64.7 65.825 65.825C64.7 66.725 63.35 67.175 62 67.175ZM62 61.325C61.775 61.325 61.55 61.325 61.55 61.55C61.55 61.775 61.325 61.775 61.325 62C61.325 62.225 61.325 62.45 61.55 62.45C61.775 62.675 62.2249 62.675 62.6749 62.45C62.8999 62.225 62.9 62.225 62.9 62C62.9 61.775 62.8999 61.55 62.6749 61.55C62.4499 61.325 62.225 61.325 62 61.325Z" fill="#003399"/>
</svg>
