<svg width="71" height="82" viewBox="0 0 71 82" fill="none" xmlns="http://www.w3.org/2000/svg">
<path d="M63.4904 36.1968C63.4904 36.1968 67.7282 35.9729 67.7282 32.2584V6.7534C67.7282 4.26993 68.7131 1.87033 70.5004 0.000976562H48.7441C44.4907 0.000976562 41.042 3.15613 41.042 7.04908V15.4725C41.042 15.4725 43.0615 36.1975 51.7555 36.1975" fill="#B5D1FB"/>
<g opacity="0.26">
<path d="M50.2752 13.2541C50.2433 13.2192 50.2301 13.1794 50.2348 13.1339L50.269 12.807C50.3055 12.4615 50.4111 12.1701 50.5859 11.9334C50.7614 11.6967 50.961 11.5077 51.1863 11.3669C51.4115 11.2262 51.7044 11.0663 52.064 10.8864C52.464 10.7016 52.76 10.5346 52.951 10.3861C53.1421 10.2375 53.2493 10.0499 53.2734 9.8224C53.299 9.57719 53.2151 9.37461 53.0209 9.2154C52.8268 9.05618 52.5565 8.96165 52.2085 8.93108C51.831 8.89768 51.5218 8.95099 51.2818 9.09101C51.0418 9.23032 50.9082 9.42792 50.8818 9.68238L50.8663 9.83236C50.8562 9.93258 50.7909 9.97736 50.6721 9.96669L48.564 9.69944C48.5143 9.69517 48.4739 9.67314 48.4429 9.63405C48.4118 9.59495 48.3986 9.55231 48.4033 9.50682L48.4079 9.46559C48.4677 8.8927 48.6798 8.40013 49.0441 7.98646C49.4083 7.57349 49.8884 7.26928 50.4857 7.07381C51.083 6.87835 51.7487 6.81296 52.4842 6.87764C53.2097 6.9409 53.8311 7.11077 54.3484 7.38514C54.8657 7.66021 55.2494 8.01702 55.4995 8.45628C55.7488 8.89555 55.8459 9.38812 55.7884 9.934C55.7457 10.3434 55.6292 10.6839 55.4405 10.9561C55.2517 11.2283 55.0358 11.4458 54.7934 11.6079C54.5511 11.7699 54.2443 11.9405 53.8753 12.1189C53.5056 12.2981 53.2283 12.4594 53.0427 12.603C52.8571 12.7473 52.7522 12.9335 52.7289 13.1602L52.7087 13.3514C52.704 13.3969 52.6823 13.4339 52.6442 13.463C52.6062 13.4922 52.5619 13.5043 52.5122 13.5L50.3956 13.3145C50.3459 13.3102 50.3055 13.2903 50.2736 13.2555L50.2752 13.2541ZM50.1509 16.1612C49.9303 15.9174 49.8387 15.6224 49.8752 15.2769C49.9125 14.9223 50.0616 14.6465 50.3226 14.4489C50.5843 14.2513 50.9028 14.1695 51.2811 14.2029C51.6586 14.2364 51.9576 14.3721 52.1782 14.6116C52.3988 14.8512 52.4904 15.1483 52.4531 15.503C52.4182 15.8392 52.2667 16.1107 51.9995 16.3168C51.7323 16.5229 51.41 16.6089 51.0325 16.5762C50.6651 16.5443 50.3707 16.4057 50.1509 16.1619V16.1612Z" fill="#0055DD"/>
</g>
<path opacity="0.33" d="M42.9172 15.4716V7.04811C42.9172 3.15587 46.3652 0 50.6193 0H48.7451C44.4917 0 41.043 3.15516 41.043 7.04811V15.4716C41.043 15.4716 43.0625 36.1965 51.7565 36.1965H53.6307C44.9367 36.1965 42.9172 15.4716 42.9172 15.4716Z" fill="#4088FB"/>
<path d="M51.7598 36.197H63.4931C63.4931 36.197 58.7403 36.197 58.7403 32.3233V18.9435C58.7403 17.9044 58.2782 16.8922 57.4113 16.2198C57.0175 15.9142 56.5251 15.6569 55.9184 15.5382C53.8391 15.1302 51.7598 16.7614 51.7598 16.7614L49.0117 21.1107L51.7598 36.197Z" fill="#01255D"/>
<path d="M55.357 15.4731C55.357 15.4731 51.6931 15.2919 51.6931 19.2331V76.3565C51.6931 78.9196 49.5198 81.0967 46.7212 81.2047C46.6226 81.2083 46.5224 81.2104 46.4206 81.2104H9.28809V24.7261C9.28809 19.6148 13.8157 15.4717 19.4012 15.4717H55.3562L55.357 15.4731Z" fill="#B5D1FB"/>
<g opacity="0.33">
<path d="M55.3561 15.4729C55.3491 15.4729 55.2932 15.4701 55.1992 15.4729H55.3561Z" fill="#C8C8DB"/>
<path d="M21.622 15.4727H19.4021C13.8166 15.4727 9.28906 19.6158 9.28906 24.7263V81.2114H11.5144V24.7263C11.5144 19.6172 16.0397 15.4748 21.622 15.4727Z" fill="#4088FB"/>
</g>
<path d="M46.6427 81.2109C46.6427 81.2109 43.1272 80.6217 43.1272 77.7224V73.0391H0.5V75.7969C0.5 78.7871 3.14866 81.2109 6.41638 81.2109H46.6427Z" fill="#01255D"/>
<path d="M62.5522 69.3756C60.6764 70.7005 57.7567 69.947 56.4052 67.792L54.7398 65.1372L53.5771 63.2813L50.3653 58.1566L50.1035 57.7394L51.6554 56.6419L53.3984 55.4102L55.7123 57.4913L58.1334 59.6692L58.1381 59.6713L60.2275 61.5499L62.4318 63.5308C64.3706 65.2737 64.428 68.05 62.5522 69.3749V69.3756Z" fill="#6B7280"/>
<g style="mix-blend-mode:multiply" opacity="0.2">
<path d="M62.5521 69.3746C62.3548 69.5161 62.1428 69.6326 61.9245 69.7264C63.2652 68.2964 63.0446 65.8911 61.2993 64.3231L52.2705 56.2067L53.3983 55.4092L62.4317 63.5306C64.3705 65.2734 64.4279 68.0497 62.5521 69.3746Z" fill="#596291"/>
</g>
<g style="mix-blend-mode:overlay">
<path d="M60.2273 61.5506C60.2273 61.5506 58.816 64.5487 54.7397 65.1372L53.5762 63.2814C53.5762 63.2814 57.2921 62.4754 58.1333 59.6699L58.1379 59.6721L60.2273 61.5506Z" fill="#0146B3"/>
</g>
<g style="mix-blend-mode:multiply" opacity="0.17">
<path d="M55.5101 57.3091C52.404 58.7001 50.3643 58.1549 50.3643 58.1549L51.6544 56.641L53.3974 55.4092L55.4923 57.2942L55.5101 57.3091Z" fill="#596291"/>
</g>
<path d="M43.1061 36.8096C36.3556 37.7336 31.7021 43.4902 32.7119 49.6676C33.7216 55.845 40.0124 60.1033 46.763 59.1793C53.5136 58.2553 58.167 52.4986 57.1573 46.3212C56.1475 40.1438 49.8567 35.8856 43.1061 36.8096ZM46.5261 57.7293C40.6509 58.5332 35.1757 54.8272 34.2964 49.4508C33.4172 44.0745 37.4678 39.0642 43.3431 38.2596C49.2183 37.4557 54.6935 41.1617 55.5727 46.538C56.4512 51.9144 52.4013 56.9247 46.5261 57.7293Z" fill="#6B7280"/>
<path d="M44.9345 56.7366C50.2114 56.7366 54.4891 52.8221 54.4891 47.9933C54.4891 43.1645 50.2114 39.25 44.9345 39.25C39.6576 39.25 35.3799 43.1645 35.3799 47.9933C35.3799 52.8221 39.6576 56.7366 44.9345 56.7366Z" fill="#F7FAFF"/>
<g opacity="0.14">
<path d="M25.1739 51.1491C25.0745 51.0397 25.0334 50.9146 25.0481 50.7717L25.1553 49.7454C25.2687 48.6621 25.5996 47.7495 26.1495 47.006C26.6987 46.2632 27.327 45.6712 28.0331 45.229C28.7391 44.7884 29.6565 44.2858 30.7843 43.7229C32.0395 43.1422 32.9661 42.6198 33.5658 42.1542C34.1639 41.6887 34.501 41.1001 34.5763 40.3872C34.6571 39.6174 34.393 38.9834 33.7856 38.4837C33.1774 37.9848 32.3284 37.687 31.2387 37.5917C30.0542 37.4879 29.0863 37.655 28.3337 38.0921C27.5803 38.5299 27.1624 39.1476 27.0785 39.9451L27.0296 40.4156C26.9969 40.7298 26.7934 40.8698 26.4198 40.8364L19.8121 39.9984C19.656 39.9849 19.5294 39.916 19.4331 39.7923C19.3352 39.6693 19.2948 39.5364 19.3096 39.3928L19.3228 39.2649C19.5108 37.4695 20.1749 35.9242 21.3167 34.6285C22.4577 33.3334 23.9646 32.3795 25.8365 31.7669C27.7076 31.1542 29.7963 30.9495 32.1016 31.1513C34.3751 31.3503 36.3232 31.8813 37.9466 32.7428C39.5692 33.6042 40.7723 34.7237 41.5553 36.1012C42.3382 37.4787 42.6404 39.0225 42.4617 40.7334C42.3273 42.0163 41.9638 43.0846 41.372 43.939C40.7793 44.7926 40.1028 45.475 39.3423 45.9832C38.5819 46.4921 37.6219 47.0266 36.463 47.586C35.3033 48.1468 34.4334 48.6529 33.8516 49.1049C33.2691 49.5577 32.9413 50.1405 32.8675 50.8528L32.8046 51.4512C32.7898 51.5941 32.7222 51.7107 32.6034 51.8002C32.483 51.8912 32.3463 51.9289 32.1902 51.9154L25.5553 51.334C25.3992 51.3204 25.2718 51.2593 25.1739 51.1491ZM24.7856 60.2628C24.0951 59.4973 23.8069 58.5733 23.9203 57.49C24.0368 56.3784 24.5044 55.5133 25.3238 54.895C26.1433 54.2766 27.1437 54.0193 28.3283 54.1231C29.512 54.2268 30.4487 54.654 31.1408 55.4053C31.8321 56.1559 32.1203 57.0877 32.0038 58.1994C31.8935 59.2542 31.4189 60.1043 30.5816 60.7497C29.7435 61.3958 28.7329 61.6666 27.55 61.5628C26.3973 61.4619 25.4761 61.029 24.7856 60.2635V60.2628Z" fill="#0055DD"/>
</g>
</svg>
