<svg xmlns="http://www.w3.org/2000/svg" width="24" height="24" viewBox="0 0 24 24" fill="none">
  <path fill-rule="evenodd" clip-rule="evenodd" d="M8.19134 5.06191C8.93037 4.03543 10.1555 3.25 12 3.25C13.8445 3.25 15.0696 4.03543 15.8087 5.06191C16.5202 6.05015 16.75 7.21346 16.75 8V11.25H17.4C17.758 11.25 18.1014 11.3922 18.3546 11.6454C18.6078 11.8986 18.75 12.242 18.75 12.6V19.4C18.75 19.758 18.6078 20.1014 18.3546 20.3546C18.1014 20.6078 17.758 20.75 17.4 20.75H6.6C6.24196 20.75 5.89858 20.6078 5.64541 20.3546C5.39223 20.1014 5.25 19.758 5.25 19.4V12.6C5.25 12.242 5.39223 11.8986 5.64541 11.6454C5.89858 11.3922 6.24196 11.25 6.6 11.25H7.25V8C7.25 7.21346 7.47984 6.05015 8.19134 5.06191ZM8.75 11.25H15.25V8C15.25 7.45354 15.0798 6.61685 14.5913 5.93834C14.1304 5.29807 13.3555 4.75 12 4.75C10.6445 4.75 9.86963 5.29807 9.40866 5.93834C8.92016 6.61685 8.75 7.45354 8.75 8V11.25Z" fill="#003399"/>
  <path d="M6.75 12.75V19.25H17.25V12.75H6.75Z" fill="#40C2FB"/>
</svg>