<svg xmlns="http://www.w3.org/2000/svg" width="24" height="24" viewBox="0 0 24 24" fill="none">
  <path d="M11.9997 22.7257C11.5497 22.7257 11.0247 22.5757 10.6497 22.3507C10.1997 22.1257 9.89971 21.7507 9.67471 21.3757C9.44971 21.0007 9.59971 20.5507 9.97471 20.3257C10.3497 20.1007 10.7997 20.2507 11.0247 20.6257C11.0997 20.8507 11.3247 21.0007 11.4747 21.0757C11.8497 21.3007 12.3747 21.3007 12.7497 21.0757C12.9747 21.0007 13.1247 20.7757 13.1997 20.6257C13.4247 20.2507 13.8747 20.1757 14.2497 20.3257C14.6247 20.5507 14.6997 21.0007 14.5497 21.3757C14.3247 21.8257 13.9497 22.1257 13.5747 22.3507C12.9747 22.6507 12.4497 22.7257 11.9997 22.7257ZM20.9997 18.7507H2.99971C2.69971 18.7507 2.39971 18.5257 2.24971 18.2257C2.17471 17.9257 2.24971 17.5507 2.54971 17.4007C2.54971 17.4007 5.24971 15.3007 5.24971 8.40068C5.24971 6.52568 5.92471 4.72568 7.19971 3.37568C8.69971 1.72568 11.0247 0.975678 13.1247 1.35068C13.4997 1.42568 13.7997 1.80068 13.7247 2.25068C13.6497 2.62568 13.2747 2.92568 12.8247 2.85068C12.5247 2.77568 12.2247 2.77568 11.9247 2.77568C10.4997 2.77568 9.22471 3.37568 8.24971 4.42568C7.34971 5.47568 6.74971 6.90068 6.74971 8.40068C6.74971 13.1257 5.54971 15.8257 4.64971 17.2507H19.3497C18.5997 16.1257 17.6997 14.1757 17.3997 11.1007C17.3247 10.7257 17.6247 10.3507 18.0747 10.2757C18.4497 10.2007 18.8247 10.5007 18.8997 10.9507C19.4247 15.8257 21.4497 17.4007 21.4497 17.4007C21.6747 17.6257 21.8247 17.9257 21.7497 18.2257C21.5997 18.5257 21.2997 18.7507 20.9997 18.7507ZM18.9747 8.77568C17.9997 8.77568 17.0247 8.40068 16.3497 7.65068C15.6747 6.97568 15.2247 6.00068 15.2247 5.02568C15.2247 4.05068 15.5997 3.07568 16.3497 2.40068C17.0247 1.72568 17.9997 1.27568 18.9747 1.27568C19.9497 1.27568 20.9247 1.65068 21.5997 2.40068C22.2747 3.07568 22.7247 4.05068 22.7247 5.02568C22.7247 6.00068 22.3497 6.97568 21.5997 7.65068C20.9247 8.32568 20.0247 8.77568 18.9747 8.77568Z" fill="#003399"/>
  <path d="M17.3996 3.45039C17.7746 3.00039 18.3746 2.77539 18.9746 2.77539C19.5746 2.77539 20.1746 3.00039 20.5496 3.45039C20.9996 3.82539 21.2246 4.42539 21.2246 5.02539C21.2246 5.62539 20.9996 6.15039 20.5496 6.60039C19.7246 7.42539 18.2246 7.42539 17.3996 6.60039C16.9496 6.22539 16.7246 5.62539 16.7246 5.02539C16.7246 4.42539 16.9496 3.90039 17.3996 3.45039Z" fill="#40C2FB"/>
</svg>