<svg xmlns="http://www.w3.org/2000/svg" width="24" height="24" viewBox="0 0 24 24" fill="none">
  <path fill-rule="evenodd" clip-rule="evenodd" d="M10.916 4.38975L2.87334 18.3771C2.39444 19.2105 2.99616 20.2504 3.95706 20.2504H20.0431C21.0033 20.2504 21.6055 19.2102 21.1268 18.3771L13.0839 4.38938C13.0839 4.38935 13.0839 4.38941 13.0839 4.38938C12.6036 3.55436 11.3978 3.55383 10.916 4.38975ZM9.61614 3.64114C10.6744 1.80354 13.3266 1.80276 14.3842 3.64151L22.4272 17.6296C23.4805 19.4625 22.1568 21.7504 20.0431 21.7504H3.95706C1.84195 21.7504 0.519673 19.4624 1.57278 17.6298L9.61614 3.64114ZM12.0001 8.25044C12.4143 8.25044 12.7501 8.58623 12.7501 9.00045V13.0004C12.7501 13.4147 12.4143 13.7504 12.0001 13.7504C11.5858 13.7504 11.2501 13.4147 11.2501 13.0004V9.00045C11.2501 8.58623 11.5858 8.25044 12.0001 8.25044Z" fill="#003399"/>
  <path fill-rule="evenodd" clip-rule="evenodd" d="M12.5145 16.4441C12.821 16.7227 12.8436 17.1971 12.5649 17.5035L12.5549 17.5145C12.2763 17.821 11.802 17.8436 11.4955 17.565C11.189 17.2863 11.1664 16.812 11.4451 16.5055L11.4551 16.4945C11.7337 16.188 12.208 16.1654 12.5145 16.4441Z" fill="#003399"/>
</svg>