<svg xmlns="http://www.w3.org/2000/svg" width="24" height="24" viewBox="0 0 24 24" fill="none">
  <path fill-rule="evenodd" clip-rule="evenodd" d="M13.0481 3.54388C12.8516 3.45708 12.6302 3.44506 12.4254 3.51008C12.2207 3.57511 12.0468 3.7127 11.9364 3.89697L9.22613 8.41437C8.9818 8.82158 8.63617 9.15861 8.22292 9.39258C8.07171 9.47819 7.91333 9.54894 7.75 9.60425V19.2495H16.4714C16.7459 19.2493 17.0132 19.1588 17.2306 18.9926C17.4483 18.8261 17.6053 18.5927 17.6774 18.3283L19.5874 11.3283C19.638 11.1428 19.6451 10.9482 19.6082 10.7596C19.5713 10.5709 19.4914 10.3934 19.3747 10.2406C19.258 10.0879 19.1076 9.96412 18.9353 9.87894C18.763 9.79377 18.5734 9.74948 18.3812 9.74952L13.805 9.74952C13.5948 9.74923 13.3875 9.69986 13.1997 9.60533C13.012 9.51079 12.8489 9.37372 12.7235 9.20502C12.598 9.03632 12.5137 8.84066 12.4773 8.63363C12.4408 8.4266 12.4532 8.21391 12.5135 8.01252L13.5356 4.60409C13.5975 4.39837 13.5822 4.17656 13.4924 3.98142C13.4026 3.78628 13.2446 3.63068 13.0481 3.54388ZM16.472 20.7495C17.0746 20.749 17.6623 20.5506 18.1416 20.1842C18.6206 19.818 18.966 19.3045 19.1246 18.7228L21.0345 11.7229C21.1458 11.315 21.1614 10.8867 21.0803 10.4716C20.9991 10.0566 20.8233 9.66594 20.5666 9.32993C20.3098 8.99392 19.9791 8.72163 19.6 8.53425C19.221 8.34689 18.8038 8.24946 18.381 8.24952H14.0084L14.9722 5.03554C15.1394 4.47958 15.0978 3.88168 14.855 3.3543C14.6123 2.82691 14.1853 2.40638 13.6542 2.17179C13.1232 1.9372 12.5247 1.90472 11.9714 2.08046C11.4182 2.25615 10.9483 2.62785 10.6499 3.12567L7.93988 7.64264C7.82882 7.82774 7.67173 7.98092 7.48388 8.08727C7.29604 8.19363 7.08387 8.24952 6.86801 8.24952H4.1C3.74196 8.24952 3.39858 8.39175 3.14541 8.64492C2.89223 8.8981 2.75 9.24148 2.75 9.59952V19.3995C2.75 19.7576 2.89223 20.1009 3.14541 20.3541C3.39858 20.6073 3.74196 20.7495 4.1 20.7495H16.472Z" fill="#003399"/>
  <path d="M6.25 19.25V9.75H4.25V19.25H6.25Z" fill="#40C2FB"/>
</svg>