<svg xmlns="http://www.w3.org/2000/svg" width="24" height="24" viewBox="0 0 24 24" fill="none">
  <path fill-rule="evenodd" clip-rule="evenodd" d="M14.6454 2.64541C14.8986 2.39223 15.242 2.25 15.6 2.25H20.4C20.758 2.25 21.1014 2.39223 21.3546 2.64541C21.6078 2.89858 21.75 3.24196 21.75 3.6V20.4C21.75 20.758 21.6078 21.1014 21.3546 21.3546C21.1014 21.6078 20.758 21.75 20.4 21.75H3.6C3.24196 21.75 2.89858 21.6078 2.64541 21.3546C2.39223 21.1014 2.25 20.758 2.25 20.4V16.6C2.25 16.242 2.39223 15.8986 2.64541 15.6454C2.89858 15.3922 3.24196 15.25 3.6 15.25H8.25V9.6C8.25 9.24196 8.39223 8.89858 8.64541 8.64541C8.89858 8.39223 9.24196 8.25 9.6 8.25H14.25V3.6C14.25 3.24196 14.3922 2.89858 14.6454 2.64541ZM14.25 9.75H9.75V20.25H14.25V9.75Z" fill="#003399"/>
  <path d="M15.75 20.25H20.25V12V3.75H15.75V12V20.25Z" fill="#40C2FB"/>
  <path d="M8.25 20.25V16.75H3.75V20.25H8.25Z" fill="#40C2FB"/>
</svg>