<svg width="24" height="24" viewBox="0 0 24 24" fill="none" xmlns="http://www.w3.org/2000/svg">
<path fill-rule="evenodd" clip-rule="evenodd" d="M1.25 12C1.25 6.06279 6.06279 1.25 12 1.25C17.9372 1.25 22.75 6.06279 22.75 12C22.75 17.9372 17.9372 22.75 12 22.75C6.06279 22.75 1.25 17.9372 1.25 12ZM12 2.75C6.89121 2.75 2.75 6.89121 2.75 12C2.75 17.1088 6.89121 21.25 12 21.25C17.1088 21.25 21.25 17.1088 21.25 12C21.25 6.89121 17.1088 2.75 12 2.75Z" fill="#000"/>
<path fill-rule="evenodd" clip-rule="evenodd" d="M10.3446 7.60313C10.0001 7.89541 9.75 8.34102 9.75 9C9.75 9.41421 9.41421 9.75 9 9.75C8.58579 9.75 8.25 9.41421 8.25 9C8.25 7.90898 8.68736 7.04209 9.37414 6.45937C10.0446 5.89048 10.9119 5.625 11.75 5.625C12.5881 5.625 13.4554 5.89048 14.1259 6.45937C14.8126 7.04209 15.25 7.90898 15.25 9C15.25 9.76588 15.0538 10.3495 14.7334 10.8301C14.4642 11.234 14.1143 11.5462 13.839 11.7919C13.8089 11.8187 13.7798 11.8447 13.7517 11.87C13.4446 12.1464 13.213 12.3743 13.0433 12.6741C12.881 12.961 12.75 13.3617 12.75 14C12.75 14.4142 12.4142 14.75 12 14.75C11.5858 14.75 11.25 14.4142 11.25 14C11.25 13.1383 11.4315 12.4765 11.7379 11.9352C12.037 11.4069 12.4304 11.0411 12.7483 10.755C12.7729 10.7328 12.797 10.7112 12.8205 10.6901C13.1207 10.4205 13.3276 10.2347 13.4853 9.99804C13.6337 9.77553 13.75 9.48412 13.75 9C13.75 8.34102 13.4999 7.89541 13.1554 7.60313C12.7946 7.29702 12.2869 7.125 11.75 7.125C11.2131 7.125 10.7054 7.29702 10.3446 7.60313ZM12.5145 17.4441C12.821 17.7227 12.8436 18.197 12.5649 18.5035L12.5549 18.5145C12.2763 18.821 11.802 18.8436 11.4955 18.5649C11.189 18.2863 11.1664 17.812 11.4451 17.5055L11.4551 17.4945C11.7337 17.188 12.208 17.1654 12.5145 17.4441Z" fill="#000"/>
</svg>
