<svg width="17" height="17" viewBox="0 0 17 17" fill="none" xmlns="http://www.w3.org/2000/svg">
<path fill-rule="evenodd" clip-rule="evenodd" d="M8.50004 2.33337C5.09418 2.33337 2.33337 5.09418 2.33337 8.50004C2.33337 11.9059 5.09418 14.6667 8.50004 14.6667C11.5909 14.6667 14.1512 12.392 14.5976 9.42563C14.6387 9.15257 14.8934 8.96451 15.1664 9.00561C15.4395 9.0467 15.6276 9.30138 15.5865 9.57445C15.0675 13.0227 12.0932 15.6667 8.50004 15.6667C4.5419 15.6667 1.33337 12.4582 1.33337 8.50004C1.33337 4.5419 4.5419 1.33337 8.50004 1.33337C11.1239 1.33337 13.4182 2.74365 14.6667 4.84643V2.50004C14.6667 2.2239 14.8906 2.00004 15.1667 2.00004C15.4428 2.00004 15.6667 2.2239 15.6667 2.50004V5.43337C15.6667 5.55156 15.6434 5.66859 15.5982 5.77779C15.553 5.88699 15.4867 5.9862 15.4031 6.06977C15.3195 6.15334 15.2203 6.21964 15.1111 6.26487C15.0019 6.31009 14.8849 6.33337 14.7667 6.33337H14.6235C14.616 6.33354 14.6085 6.33354 14.6011 6.33337H11.8334C11.5572 6.33337 11.3334 6.10952 11.3334 5.83337C11.3334 5.55723 11.5572 5.33337 11.8334 5.33337H13.7928C12.7148 3.53552 10.747 2.33337 8.50004 2.33337Z" fill="#0055DD"/>
</svg>
