<svg width="20" height="20" viewBox="0 0 20 20" fill="none" xmlns="http://www.w3.org/2000/svg">
<path fill-rule="evenodd" clip-rule="evenodd" d="M12.6454 0.645406C12.8986 0.392231 13.242 0.25 13.6 0.25H18.4C18.758 0.25 19.1014 0.392231 19.3546 0.645406C19.6078 0.898581 19.75 1.24196 19.75 1.6V18.4C19.75 18.758 19.6078 19.1014 19.3546 19.3546C19.1014 19.6078 18.758 19.75 18.4 19.75H1.6C1.24196 19.75 0.898581 19.6078 0.645406 19.3546C0.392231 19.1014 0.25 18.758 0.25 18.4V14.6C0.25 14.242 0.392231 13.8986 0.645406 13.6454C0.898581 13.3922 1.24196 13.25 1.6 13.25H6.25V7.6C6.25 7.24196 6.39223 6.89858 6.64541 6.64541C6.89858 6.39223 7.24196 6.25 7.6 6.25H12.25V1.6C12.25 1.24196 12.3922 0.898581 12.6454 0.645406ZM12.25 7.75H7.75V18.25H12.25V7.75ZM13.75 18.25H18.25V1.75H13.75V18.25ZM6.25 18.25V14.75H1.75V18.25H6.25Z" fill="#000"/>
</svg>
