<svg width="16" height="16" viewBox="0 0 16 16" fill="none" xmlns="http://www.w3.org/2000/svg">
<path fill-rule="evenodd" clip-rule="evenodd" d="M1.97703 2.22703C3.2429 0.961159 4.95979 0.25 6.75 0.25C8.54021 0.25 10.2571 0.961159 11.523 2.22703C12.7888 3.4929 13.5 5.20979 13.5 7C13.5 7.88642 13.3254 8.76417 12.9862 9.58311C12.7431 10.1701 12.4188 10.7186 12.0237 11.2131L15.2803 14.4697C15.5732 14.7626 15.5732 15.2374 15.2803 15.5303C14.9874 15.8232 14.5126 15.8232 14.2197 15.5303L10.9631 12.2737C10.4686 12.6688 9.9201 12.9931 9.33311 13.2362C8.51417 13.5754 7.63642 13.75 6.75 13.75C5.86358 13.75 4.98584 13.5754 4.16689 13.2362C3.34794 12.897 2.60382 12.3998 1.97703 11.773C1.35023 11.1462 0.853032 10.4021 0.513813 9.58311C0.174594 8.76417 0 7.88642 0 7C4.47035e-08 5.20979 0.711159 3.4929 1.97703 2.22703ZM6.75 1.75C5.35761 1.75 4.02226 2.30312 3.03769 3.28769C2.05312 4.27226 1.5 5.60761 1.5 7C1.5 7.68944 1.6358 8.37213 1.89963 9.00909C2.16347 9.64605 2.55018 10.2248 3.03769 10.7123C3.5252 11.1998 4.10395 11.5865 4.74091 11.8504C5.37787 12.1142 6.06056 12.25 6.75 12.25C7.43944 12.25 8.12213 12.1142 8.75909 11.8504C9.39605 11.5865 9.9748 11.1998 10.4623 10.7123C10.9498 10.2248 11.3365 9.64605 11.6004 9.00909C11.8642 8.37213 12 7.68944 12 7C12 5.60761 11.4469 4.27226 10.4623 3.28769C9.47774 2.30312 8.14239 1.75 6.75 1.75Z" fill="#000"/>
</svg>
