<svg width="28" height="28" viewBox="0 0 28 28" fill="none" xmlns="http://www.w3.org/2000/svg">
<path fill-rule="evenodd" clip-rule="evenodd" d="M13.3989 21.5484L8.00994 24.3441C7.03893 24.8486 5.89779 24.0324 6.08452 22.9619L7.12192 16.9941L2.73578 12.7695C1.94736 12.0107 2.38307 10.6859 3.47027 10.5301L9.53284 9.66055L12.2425 4.23008C12.4754 3.76579 12.9148 3.52418 13.3643 3.50173V3.5C13.3758 3.5 13.3874 3.50014 13.3989 3.50043C13.4104 3.50014 13.422 3.5 13.4335 3.5V3.50173C13.883 3.52418 14.3224 3.76579 14.5553 4.23008L17.265 9.66055L23.3275 10.5301C24.4147 10.6859 24.8504 12.0107 24.062 12.7695L19.6759 16.9941L20.7133 22.9619C20.9 24.0324 19.7589 24.8486 18.7879 24.3441L13.3989 21.5484Z" fill="#000"/>
</svg>
