<svg width="24" height="24" viewBox="0 0 24 24" fill="none" xmlns="http://www.w3.org/2000/svg">
<path fill-rule="evenodd" clip-rule="evenodd" d="M13.0481 3.54437C12.8516 3.45756 12.6302 3.44555 12.4254 3.51057C12.2207 3.5756 12.0468 3.71319 11.9364 3.89746L9.22613 8.41486C8.9818 8.82207 8.63617 9.15909 8.22292 9.39307C8.07171 9.47868 7.91333 9.54943 7.75 9.60474V19.25H16.4714C16.7459 19.2498 17.0132 19.1593 17.2306 18.993C17.4483 18.8266 17.6053 18.5932 17.6774 18.3288L19.5874 11.3288C19.638 11.1433 19.6451 10.9487 19.6082 10.7601C19.5713 10.5714 19.4914 10.3938 19.3747 10.2411C19.258 10.0884 19.1076 9.96461 18.9353 9.87943C18.763 9.79426 18.5734 9.74997 18.3812 9.75001L13.805 9.75001C13.5948 9.74972 13.3875 9.70034 13.1997 9.60581C13.012 9.51128 12.8489 9.37421 12.7235 9.20551C12.598 9.03681 12.5137 8.84115 12.4773 8.63412C12.4408 8.42709 12.4532 8.2144 12.5135 8.01301L13.5356 4.60457C13.5975 4.39886 13.5822 4.17705 13.4924 3.98191C13.4026 3.78677 13.2446 3.63117 13.0481 3.54437ZM6.25 19.25V9.75001H4.25V19.25H6.25ZM16.472 20.75C17.0746 20.7495 17.6623 20.5511 18.1416 20.1847C18.6206 19.8185 18.966 19.305 19.1246 18.7233L21.0345 11.7234C21.1458 11.3155 21.1614 10.8871 21.0803 10.4721C20.9991 10.0571 20.8233 9.66643 20.5666 9.33042C20.3098 8.9944 19.9791 8.72212 19.6 8.53474C19.221 8.34738 18.8038 8.24994 18.381 8.25001C18.3809 8.25001 18.3811 8.25001 18.381 8.25001H14.0084L14.9722 5.03603C15.1394 4.48007 15.0978 3.88217 14.855 3.35478C14.6123 2.8274 14.1853 2.40686 13.6542 2.17228C13.1232 1.93769 12.5247 1.90521 11.9714 2.08095C11.4182 2.25664 10.9483 2.62834 10.6499 3.12616C10.6498 3.12629 10.6499 3.12602 10.6499 3.12616L7.93988 7.64313C7.82882 7.82823 7.67173 7.98141 7.48388 8.08776C7.29604 8.19411 7.08387 8.25001 6.86801 8.25001H4.1C3.74196 8.25001 3.39858 8.39224 3.14541 8.64541C2.89223 8.89859 2.75 9.24197 2.75 9.60001V19.4C2.75 19.7581 2.89223 20.1014 3.14541 20.3546C3.39858 20.6078 3.74196 20.75 4.1 20.75H16.472ZM6.86801 8.26158C6.868 8.26158 6.86801 8.26158 6.86801 8.26158V8.26158Z" fill="#000"/>
</svg>
