<svg width="16" height="17" viewBox="0 0 16 17" fill="none" xmlns="http://www.w3.org/2000/svg">
<path fill-rule="evenodd" clip-rule="evenodd" d="M8.16663 4C8.29923 4 8.42641 4.05268 8.52018 4.14645L12.5202 8.14645C12.7154 8.34171 12.7154 8.65829 12.5202 8.85355C12.3249 9.04882 12.0083 9.04882 11.8131 8.85355L8.66663 5.70711V12.8333C8.66663 13.1095 8.44277 13.3333 8.16663 13.3333C7.89048 13.3333 7.66663 13.1095 7.66663 12.8333V5.70711L4.52018 8.85355C4.32492 9.04882 4.00833 9.04882 3.81307 8.85355C3.61781 8.65829 3.61781 8.34171 3.81307 8.14645L7.81307 4.14645C7.90684 4.05268 8.03402 4 8.16663 4Z" fill="#1EAE53"/>
</svg>
