<svg width="16" height="17" viewBox="0 0 16 17" fill="none" xmlns="http://www.w3.org/2000/svg">
<g clip-path="url(#clip0_1426_2365)">
<path d="M8 13.335C7.935 13.335 7.87 13.32 7.81 13.3C7.75 13.275 7.695 13.24 7.65 13.195L3.645 9.185C3.45 8.99 3.45 8.675 3.645 8.48C3.84 8.285 4.155 8.285 4.35 8.48L7.495 11.625V4.5C7.495 4.225 7.72 4 7.995 4C8.27 4 8.495 4.225 8.495 4.5V11.625L11.64 8.48C11.835 8.285 12.15 8.285 12.345 8.48C12.54 8.675 12.54 8.99 12.345 9.185L8.345 13.185C8.3 13.235 8.245 13.27 8.19 13.29C8.13 13.315 8.065 13.33 7.995 13.33L8 13.335Z" fill="#EF4444"/>
</g>
<defs>
<clipPath id="clip0_1426_2365">
<rect width="9" height="9.335" fill="white" transform="translate(3.5 4)"/>
</clipPath>
</defs>
</svg>
