<svg width="20" height="20" viewBox="0 0 20 20" fill="none" xmlns="http://www.w3.org/2000/svg">
<path fill-rule="evenodd" clip-rule="evenodd" d="M1.75 1.75V7.25H7.25V1.75H1.75ZM0.645406 0.645406C0.89858 0.392232 1.24196 0.25 1.6 0.25H7.4C7.75804 0.25 8.10142 0.392231 8.3546 0.645406C8.60777 0.898581 8.75 1.24196 8.75 1.6V7.4C8.75 7.75804 8.60777 8.10142 8.3546 8.3546C8.10142 8.60777 7.75804 8.75 7.4 8.75H1.6C1.24196 8.75 0.898581 8.60777 0.645406 8.3546C0.392231 8.10142 0.25 7.75804 0.25 7.4V1.6C0.25 1.24196 0.392232 0.89858 0.645406 0.645406ZM12.75 1.75V7.25H18.25V1.75H12.75ZM11.6454 0.645406C11.8986 0.392231 12.242 0.25 12.6 0.25H18.4C18.758 0.25 19.1014 0.392231 19.3546 0.645406C19.6078 0.898581 19.75 1.24196 19.75 1.6V7.4C19.75 7.75804 19.6078 8.10142 19.3546 8.3546C19.1014 8.60777 18.758 8.75 18.4 8.75H12.6C12.242 8.75 11.8986 8.60777 11.6454 8.3546C11.3922 8.10142 11.25 7.75804 11.25 7.4V1.6C11.25 1.24196 11.3922 0.898581 11.6454 0.645406ZM1.75 12.75V18.25H7.25V12.75H1.75ZM0.645406 11.6454C0.898581 11.3922 1.24196 11.25 1.6 11.25H7.4C7.75804 11.25 8.10142 11.3922 8.3546 11.6454C8.60777 11.8986 8.75 12.242 8.75 12.6V18.4C8.75 18.758 8.60777 19.1014 8.3546 19.3546C8.10142 19.6078 7.75804 19.75 7.4 19.75H1.6C1.24196 19.75 0.898581 19.6078 0.645406 19.3546C0.392231 19.1014 0.25 18.758 0.25 18.4V12.6C0.25 12.242 0.392231 11.8986 0.645406 11.6454ZM12.75 12.75V18.25H18.25V12.75H12.75ZM11.6454 11.6454C11.8986 11.3922 12.242 11.25 12.6 11.25H18.4C18.758 11.25 19.1014 11.3922 19.3546 11.6454C19.6078 11.8986 19.75 12.242 19.75 12.6V18.4C19.75 18.758 19.6078 19.1014 19.3546 19.3546C19.1014 19.6078 18.758 19.75 18.4 19.75H12.6C12.242 19.75 11.8986 19.6078 11.6454 19.3546C11.3922 19.1014 11.25 18.758 11.25 18.4V12.6C11.25 12.242 11.3922 11.8986 11.6454 11.6454Z" fill="#000"/>
</svg>
